<svg version="1.1" xmlns="http://www.w3.org/2000/svg" xmlns:xlink="http://www.w3.org/1999/xlink" width="150" height="150"><defs/><g><path fill="none" stroke="#000000" paint-order="fill stroke markers" d=" M 41.63212634025814 85.56338049241366 Q 43.092613547716596 88.08718816070291 43.19657992904495 87.02258174396736 Q 42.954948199917396 90.24525695238542 42.98864716638825 89.15179457743847 Q 42.96063264701489 92.4564613089195 42.921249233446545 91.33871932733237 Q 43.11500239538587 94.71142876881444 43.00001606058323 93.57420329050665 Q 44.22751709664904 96.40672306349731 43.22998873018851 95.84865424712224 Q 45.46380200938959 98.08260177306181 45.225045463109566 96.96479187987237 Q 46.75517139161442 99.64595612341338 45.70255855566961 99.20041166625124 Q 48.86409785635795 100.45905970273253 47.807784227559225 100.09150058057554 Q 50.31880770886275 101.87169233407602 49.92041148515668 100.82661882488951 Q 51.80739903705755 103.16651136337359 50.71720393256882 102.91676584326251 Q 53.40797281483271 104.41145123662429 52.89759414154628 103.41625688348465 Q 54.50545043928759 106.38736903051603 53.91835148811914 105.40664558976394 Q 56.23265922213275 107.44965972828831 55.09254939045604 107.36809247126813 Q 58.49118536460037 107.53779557903925 57.37276905380947 107.53122698530848 Q 60.324278868888584 108.40467498855784 59.60960167539126 107.54436417277005 Q 61.82536722910737 110.09448030255493 61.03895606238591 109.26498580434563 Q 63.74232309685478 110.7555339367025 62.611778395828836 110.92397480076423 Q 65.9659211654458 110.35017003382575 64.87286779788073 110.58709307264078 Q 68.11050833204114 109.81146519426264 67.05897453301088 110.11324699501071 Q 70.05580138321831 110.14054786784132 69.16204213107139 109.50968339351455 Q 71.90386277152655 111.35468382577125 70.94956063536523 110.7714123421681 Q 73.87039766679456 112.46888702541231 72.85816490768786 111.93795530937439 Q 75.8981236050783 112.47515003764889 74.88263042590124 112.99981874145024 Q 77.87150376510371 111.3731160053181 76.91361678425534 111.95048133384753 Q 79.72702999490099 110.17041927304166 78.82939074595208 110.79575067678866 Q 81.67431877811458 109.85335956923437 80.62466924384988 109.54508786929466 Q 83.81553727609642 110.4053019241905 82.72396831237928 110.16163126917408 Q 85.71642908206002 109.8770304002292 84.90710623981357 110.64897257920691 Q 87.26583429329469 108.29943713493776 86.52575192430645 109.10508822125149 Q 89.09749225103488 107.56630032174743 88.00591666228291 107.49378604862402 Q 91.30750338769883 107.63915493804221 90.18906783978686 107.63881459487084 Q 93.04792238555333 106.70996057036933 92.42593893561082 107.63949528121358 Q 94.21697343291342 104.8330544278144 93.66990583549585 105.78042585952507 Q 95.23617648460942 102.92584762281606 94.76404103033097 103.88568299610372 Q 96.75747856402842 101.75757707089423 95.70831193888787 101.9660122495284 Q 98.8631079954036 101.2650962536584 97.80664518916896 101.54914189226007 Q 70.7197194594204 93.09152445256083 99.91957080163824 100.98105061505673 Q 41.35499781430866 86.28348493768917 41.51986811720256 85.20199829006495 Q 41.09489187339129 88.4793451151125 41.19012751141476 87.36497158531338 Q 40.97713394481303 90.73652063656715 40.99965623536783 89.5937186449116 Q 41.8778393020355 92.55323238188662 40.95461165425824 91.8793226282227 Q 42.90375117717636 94.36554434705333 42.80106694981276 93.22714213555054 Q 43.18677199169092 96.65767558489277 43.00643540453996 95.50394655855612 Q 43.627039752963455 98.97530275578762 43.36710857884187 97.81140461122942 Q 44.22810332989074 101.3079462940855 43.886970927085045 100.13920090034583 Q 44.99282841398384 103.64481976623648 44.56923573269644 102.47669168782515 Q 45.92337486239964 105.97487363871787 45.41642109527123 104.81294784464782 Q 47.02117680546882 108.28684058934371 46.43032862952805 107.1367994327879 Q 48.28692561878943 110.56928218939959 47.61202498140959 109.43688174589954 Q 50.253614861413105 111.96455871423265 48.961826256169275 111.70168263289965 Q 52.82607263661019 112.40515003384331 51.545403466656936 112.22743479556567 Q 55.37091090630432 112.67747055839641 54.10674180656344 112.58286527212096 Q 57.877561966476165 112.78595191100689 56.635080006045186 112.77207584467186 Q 59.99965715760758 113.67745804268263 59.120043926907144 112.7998279773419 Q 62.11580753731525 114.43290035766182 60.879270388308015 114.55508810802336 Q 64.55384087837444 114.11387762027752 63.352344686322475 114.31071260730029 Q 66.91740669109427 113.64905512812241 65.75533707042642 113.91704263325477 Q 69.07476379680033 114.03805006439364 68.07947631176214 113.38106762299006 Q 71.12713357271687 115.29911374366428 70.07005128183852 114.69503250579723 Q 73.31410430567638 115.4496652470231 72.18421586359524 115.90319498153133 Q 75.51991841496654 114.48173579942492 74.44399274775752 114.99613551251488 Q 77.61461366979569 113.39661682240819 76.59584408217556 113.96733608633497 Q 79.74216406785226 113.19225403144848 78.63338325741582 112.82589755848143 Q 82.00511601025639 113.85879728680061 80.8509448782887 113.55861050441554 Q 84.3548474846616 114.3891417960215 83.15928714222406 114.15898406918569 Q 86.47317219147163 113.82504324212931 85.55040782709916 114.61929952285733 Q 88.24796602242662 112.19635967621622 87.3959365558441 113.03078696140128 Q 89.87973818142787 110.49267219724771 89.09999548900915 111.36193239103116 Q 91.36575576915104 108.72470214040143 90.65948087384659 109.62341200346427 Q 93.21336166590434 107.7638055357015 92.07203066445547 107.8259922773386 Q 94.95836790142779 106.7310108106495 94.35469266735322 107.70161879406439 Q 67.41148999506848 92.54349551588264 95.56204313550236 105.7604028272346 Q 38.91401186432555 80.38985733403918 39.26093685463461 79.32658820453068 Q 39.25810860344334 82.3325507980567 38.567086874016496 81.45312646354768 Q 40.68032697945419 84.02569931789517 39.94913033287018 83.21197513256571 Q 41.234970206694264 85.91906440458199 41.411523626038196 84.83942350322462 Q 40.95113839839724 88.11198403919994 41.05841678735033 86.99870530593935 Q 40.80898335681862 90.36775446381122 40.84386000944415 89.22526277246054 Q 41.68999425331938 92.19409821742332 40.774106704193095 91.5102461551619 Q 43.54397239163207 93.48695293743475 42.60588180244566 92.87795027968473 Q 45.436947223693906 94.6298017045403 44.482062980818476 94.09595559518478 Q 46.573561649606795 96.24242940733303 46.39183146656933 95.16364781389582 Q 47.013449695123995 98.40944475723373 46.75529183264426 97.32121100077025 Q 47.60772251331028 100.59016667484772 47.27160755760373 99.4976785136972 Q 49.03154802367273 102.03392310241856 47.94383746901683 101.68265483599825 Q 51.20379875705471 102.65845093664107 50.119258578328626 102.38519136883885 Q 52.77707998072644 103.93770771202001 52.2883389357808 102.9317105044433 Q 53.831577305467746 105.93689346039623 53.26582102567209 104.94370491959673 Q 55.04010220408965 107.90499761473833 54.39733358526341 106.93008200119574 Q 56.402278997592404 109.83105726805346 55.68287082291589 108.87991322828093 Q 58.314249881884066 110.78635941094883 57.12168717226893 110.782201307826 Q 60.67236561075775 110.71911646243963 59.506812591499205 110.79051751407167 Q 62.971841088772194 110.50375880890005 61.8379186300163 110.64771541080759 Q 64.96206208540514 111.11693922215773 64.10576354752808 110.35980220699248 Q 66.74163764511445 112.58903881804551 65.81836062328219 111.87407623732297 Q 68.65304085524511 113.97170623040033 67.66491466694671 113.30400139876805 Q 70.77111624052051 114.25804782516093 69.64116704354352 114.63941106203261 Q 72.9810414891069 113.4325408290997 71.9010654374975 113.87668458828924 Q 75.0876178108594 112.48580824089987 74.06101754071632 112.98839706991015 Q 77.08436503827585 111.42670070424367 76.11421808100246 111.98321941188958 Q 79.10478852132596 111.25465229463003 78.05451199554922 110.87018199659775 Q 81.25186342337196 111.96089420035452 80.1550650471027 111.63912259266233 Q 83.24132103162306 111.56875885244156 82.34866179964123 112.28266580804669 Q 84.95980499758207 110.10058954233492 84.13398026360488 110.85485189683644 Q 86.89439585116077 109.49307827876807 85.78562973155927 109.3463271878334 Q 89.14369411391198 109.7152619630961 88.00316197076228 109.63982936970274 Q 91.00017648934366 108.8996732825576 90.28422625706169 109.79069455648946 Q 91.00017648934366 108.8996732825576 91.71612672162561 108.00865200862575" stroke-miterlimit="10" stroke-dasharray=""/></g></svg>